# xmcd CD database file
#
# Track frame offsets:
#	150
#	16406
#	35702
#	53944
#	71387
#	84784
#	98939
#	122393
#	140543
#	154851
#	174063
#
# Disc length: 2626 seconds
#
# Revision: 0
# Processed by: cddbd v1.5.2PL0 Copyright (c) Steve Scherf et al.
# Submitted via: CDex 1.70beta2
#
DISCID=820a400b
DTITLE=Poco - Legacy (BGO 1138)
DYEAR=1989
DGENRE=Country
TTITLE0=When It All Began
TTITLE1=Call It Love
TTITLE2=The Nature Of Love
TTITLE3=What Do People Know
TTITLE4=Follow Your Dreams
TTITLE5=Rough Edges
TTITLE6=Nothin´ To Hide
TTITLE7=Who Else
TTITLE8=Lovin´ You Every Minute
TTITLE9=If It Wasn´t For You
TTITLE10=Look Within (bonus track)
EXTD=YEAR: 1989
EXTT0=
EXTT1=
EXTT2=
EXTT3=
EXTT4=
EXTT5=
EXTT6=
EXTT7=
EXTT8=
EXTT9=
EXTT10=
PLAYORDER=
